<svg width="31" height="31" viewBox="0 0 31 31" fill="none" xmlns="http://www.w3.org/2000/svg">
<g clip-path="url(#clip0_8058_16419)">
<mask id="mask0_8058_16419" style="mask-type:alpha" maskUnits="userSpaceOnUse" x="0" y="0" width="31" height="31">
<path fill-rule="evenodd" clip-rule="evenodd" d="M15.8926 0.724121C24.1762 0.724121 30.8925 7.44042 30.8925 15.7241C30.8925 24.0078 24.1762 30.7241 15.8926 30.7241C7.60887 30.7241 0.892578 24.0078 0.892578 15.7241C0.892578 7.44042 7.60887 0.724121 15.8926 0.724121Z" fill="#2394E0"/>
</mask>
<g mask="url(#mask0_8058_16419)">
<path fill-rule="evenodd" clip-rule="evenodd" d="M15.8926 0.724121C24.1763 0.724121 30.8926 7.44043 30.8926 15.7241C30.8926 24.0078 24.1763 30.7241 15.8926 30.7241C7.60889 30.7241 0.892578 24.0078 0.892578 15.7241C0.892578 7.44043 7.60889 0.724121 15.8926 0.724121Z" fill="#1F49B6"/>
<path d="M4.4379 5.44527C4.4379 5.44527 5.19295 3.84653 5.24958 2.35627L9.49941 -5.12696L19.766 -0.609721C20.5034 -0.022071 21.9114 1.39384 21.6438 2.35627C21.3092 3.55931 21.114 2.65994 22.4255 4.46882C23.7369 6.27771 22.7696 6.56302 20.7475 5.44526C18.7254 4.32751 18.9827 4.92049 17.5407 5.44527C16.0987 5.97004 14.8484 6.68779 14.4431 8.27835C14.0378 9.86892 18.3272 9.35843 19.0834 9.56871C19.8396 9.77899 22.7956 9.26788 23.9061 12.4651C24.7946 15.0229 22.6751 17.1589 21.5042 17.9072C20.7899 17.8567 18.8237 18.2505 16.6735 20.2299C13.9859 22.7042 16.1354 26.5606 13.3339 26.1149C10.5325 25.6692 10.2852 21.2308 10.8473 18.9431C11.4094 16.6554 10.4075 13.5998 10.3781 12.7766C10.3486 11.9535 10.3549 11.6592 10.8942 10.9205C11.4335 10.1817 11.8031 9.24782 11.2915 8.2909C10.78 7.33398 9.88034 8.58772 7.21354 8.75099C4.54675 8.91426 4.4379 5.44527 4.4379 5.44527Z" fill="#A1E367"/>
</g>
</g>
<defs>
<clipPath id="clip0_8058_16419">
<rect width="30" height="30" fill="white" transform="translate(0.892578 0.724121)"/>
</clipPath>
</defs>
</svg>
